# xmcd
# 
# Track frame offsets:
#     150
#     23860
#     43802
#     62230
#     76324
#     96409
#     110317
#     134501
#     152349
#     169100
#     192453
# 
# Disc length: 2604
# 
# Revision: 1
# Processed by: cddbd v1.5.2PL0 Copyright (c) Steve Scherf et al.
# Submitted via: fre:ac v1.0.27
# 
DISCID=910a2a0b
DTITLE=Double Trouble - Been A Long Time
DYEAR=2001
DGENRE=Rock
TTITLE0=Cry Sky
TTITLE1=Turn Towards the Mirror
TTITLE2=Say One Thing
TTITLE3=Rock and Roll
TTITLE4=Skyscraper
TTITLE5=In the Middle of the Night
TTITLE6=She's All Right
TTITLE7=Groundhog Day
TTITLE8=In the Garden
TTITLE9=Baby, There's No One Like You
TTITLE10=Hidden Track
EXTD=YEAR: 2001
EXTT0=Vocals: Malford Milligan\nGuiter Solo: Kenny Wayne Sheppard
EXTT1=Vocals: Charlie Sexton, Doyle Bramhall II
EXTT2=Vocals: Doyle Bramhall II
EXTT3=Vocals: Susan Tedeschi\nGuitar Solo: Kenny Wayne Shaperd
EXTT4=Vocals: Malford Milligan
EXTT5=Vocals: Jimmie Vaughan, Lou Ann Barton
EXTT6=Vocals: Doyle Bramhall II
EXTT7=Vocals: Jonny Lang
EXTT8=Vocals: Susan Tedeschi
EXTT9=Vocals: Dr. John\nGuiter Solo: Willie Nelson
EXTT10=
PLAYORDER=
